# xmcd
#
# Track frame offsets:
# 150
# 22564
# 46097
# 66432
# 81751
# 103370
# 123940
# 147218
# 172294
# 185902
# 207540
# 226097
# 242147
# 270344
# 285014
#
# Disc length: 3969 seconds
#
#
# Revision: 0
# Processed by: cddbd v1.5.1PL2 Copyright (c) Steve Scherf et al.
# Submitted via: FreeRIP 2.53 
#
DISCID=d00f7f0f
DTITLE=Schok, Holtrop, Patigny, Deelen, Nye, Duskin - The Sixth Annual Blues and Boogie Piano Summit
DYEAR=2004
DGENRE=Boogie Woogie
TTITLE0=Cincinnatie Boogie
TTITLE1=Women Be Wise
TTITLE2=Let The Good Times Roll
TTITLE3=Duane's Tune
TTITLE4=For My Ebony Doll
TTITLE5=Boo-Boo-Gee-Gee
TTITLE6=Honky Tonk Train Blues
TTITLE7=Domino Day
TTITLE8=Death Ray Boogie
TTITLE9=Kansas City
TTITLE10=You Must Be Foolin'
TTITLE11=Battle Hymn Of The Republic
TTITLE12=If You Wanna Be My Woman
TTITLE13=Down The Road Apiece
TTITLE14=Roll'Em Pete
EXTD=1-2-3 Records
EXTT0=
EXTT1=
EXTT2=
EXTT3=
EXTT4=
EXTT5=
EXTT6=
EXTT7=
EXTT8=
EXTT9=
EXTT10=
EXTT11=
EXTT12=
EXTT13=
EXTT14=
PLAYORDER=
